<?xml version="1.0" encoding="UTF-8" standalone="no"?>
<svg
   xmlns:dc="http://purl.org/dc/elements/1.1/"
   xmlns:cc="http://creativecommons.org/ns#"
   xmlns:rdf="http://www.w3.org/1999/02/22-rdf-syntax-ns#"
   xmlns:svg="http://www.w3.org/2000/svg"
   xmlns="http://www.w3.org/2000/svg"
   id="svg12"
   xml:space="preserve"
   style="enable-background:new 0 0 100 100;"
   viewBox="0 0 100 100"
   y="0px"
   x="0px"
   version="1.1"
   fill="#000000"
   width="300px"
   height="300px"><metadata
     id="metadata18"><rdf:RDF><cc:Work
         rdf:about=""><dc:format>image/svg+xml</dc:format><dc:type
           rdf:resource="http://purl.org/dc/dcmitype/StillImage" /><dc:title></dc:title></cc:Work></rdf:RDF></metadata><defs
     id="defs16" /><path
     d="M 86.7,2.5 H 64.4 c -2.1,0 -3.9,1.7 -3.9,3.9 v 87.3 c 0,2.1 1.7,3.9 3.9,3.9 h 22.2 c 2.1,0 3.9,-1.7 3.9,-3.9 V 6.4 c 0,-2.2 -1.7,-3.9 -3.8,-3.9 z m -51.1,0 H 13.3 c -2.1,0 -3.9,1.7 -3.9,3.9 v 87.3 c 0,2.1 1.7,3.9 3.9,3.9 h 22.2 c 2.1,0 3.9,-1.7 3.9,-3.9 V 6.4 c 0,-2.2 -1.7,-3.9 -3.8,-3.9 z"
     id="path4" /></svg>